<?xml version="1.0" encoding="UTF-8"?>
<!-- Generated by Pixelmator Pro 3.6 -->
<svg width="682" height="682" viewBox="0 0 682 682" xmlns="http://www.w3.org/2000/svg">
    <path id="Path" fill="#000000" stroke="none" d="M 504.667328 640.333313 C 457.599365 640.333313 419.333344 602.067261 419.333344 554.99939 L 419.333344 128.333313 C 419.333344 81.265381 457.599365 42.999329 504.667328 42.999329 C 551.735291 42.999329 589.99939 81.265381 589.99939 128.333313 L 589.99939 554.99939 C 589.99939 602.067261 551.735291 640.333313 504.667328 640.333313 Z M 503.999359 619.333313 C 537.645569 619.333313 564.99939 583.757813 564.99939 539.999329 L 564.99939 143.333313 C 564.99939 99.574829 537.645569 63.999329 503.999359 63.999329 C 470.353119 63.999329 442.999359 99.574829 442.999359 143.333313 L 442.999359 539.999329 C 442.999359 583.757813 470.353119 619.333313 503.999359 619.333313 Z"/>
    <path id="Path-copy-2" fill="#000000" stroke="none" d="M 505.000824 630 C 464.735504 630 432 593.03656 432 547.570923 L 432 135.429138 C 432 89.96344 464.735504 53 505.000824 53 C 545.266113 53 578 89.96344 578 135.429138 L 578 547.570923 C 578 593.03656 545.266113 630 505.000824 630 Z M 504.429382 609.714844 C 533.212769 609.714844 556.61322 575.350403 556.61322 533.081543 L 556.61322 149.918457 C 556.61322 107.649597 533.212769 73.285156 504.429382 73.285156 C 475.645996 73.285156 452.245605 107.649597 452.245605 149.918457 L 452.245605 533.081543 C 452.245605 575.350403 475.645996 609.714844 504.429382 609.714844 Z"/>
    <path id="Rounded-Rectangle" fill="#000000" fill-rule="evenodd" stroke="none" d="M 432 207.5 C 432 217.164978 439.835022 225 449.5 225 L 481.5 225 C 491.164978 225 499 217.164978 499 207.5 C 499 197.835022 491.164978 190 481.5 190 L 449.5 190 C 439.835022 190 432 197.835022 432 207.5 Z"/>
    <path id="Rounded-Rectangle-copy" fill="#000000" fill-rule="evenodd" stroke="none" d="M 432 337.5 C 432 347.164978 439.835022 355 449.5 355 L 481.5 355 C 491.164978 355 499 347.164978 499 337.5 C 499 327.835022 491.164978 320 481.5 320 L 449.5 320 C 439.835022 320 432 327.835022 432 337.5 Z"/>
    <path id="Rounded-Rectangle-copy-2" fill="#000000" fill-rule="evenodd" stroke="none" d="M 432 467.5 C 432 477.164978 439.835022 485 449.5 485 L 481.5 485 C 491.164978 485 499 477.164978 499 467.5 C 499 457.835022 491.164978 450 481.5 450 L 449.5 450 C 439.835022 450 432 457.835022 432 467.5 Z"/>
    <path id="Path-copy" fill="#000000" stroke="none" d="M 227.105042 461 C 153.278 461 93.216904 400.940094 93.216904 327.111877 C 93.216904 260.636322 198.399185 73.367554 210.38797 52.223633 C 217.209717 40.187378 236.983124 40.187378 243.80571 52.223633 C 255.817917 73.365173 361 260.6315 361 327.111877 L 360.993164 327.111877 C 360.993164 400.938904 300.933319 461 227.105042 461 Z M 227.1064 431.645081 C 287.84137 431.645081 337.24884 382.235229 337.24884 321.501251 L 337.254303 321.501251 C 337.254303 266.811066 250.727219 112.757446 240.845352 95.365356 C 235.232742 85.463623 218.965729 85.463623 213.35379 95.365356 C 203.49118 112.759399 116.962585 266.815033 116.962585 321.501251 C 116.962585 382.236206 166.372452 431.645081 227.1064 431.645081 Z"/>
</svg>
