<?xml version="1.0" encoding="UTF-8"?>
<svg width="512pt" height="512pt" version="1.1" viewBox="0 0 512 512" xmlns="http://www.w3.org/2000/svg">
 <g>
  <path d="m253 368.54c0-55.344-87.562-211.24-97.562-228.84-5.6797-10.02-22.141-10.02-27.82 0-9.9805 17.602-97.543 173.5-97.543 228.84 0 61.461 50 111.46 111.46 111.46 61.461 0 111.46-50 111.46-111.46zm-190.92 0c0-31.379 43.441-121.7 79.461-187.98 36 66.277 79.461 156.6 79.461 187.98 0 43.801-35.641 79.461-79.461 79.461-43.801 0-79.461-35.641-79.461-79.461z"/>
  <path d="m263.24 32c-5.7617 0-11.082 3.0781-13.922 8.1016-8.3203 14.68-49.82 89.262-49.82 118.36 0 35.141 28.602 63.719 63.719 63.719 35.141 0 63.719-28.602 63.719-63.719 0-29.102-41.48-103.72-49.801-118.36-2.8398-5-8.1602-8.1016-13.922-8.1016zm0 158.2c-17.5 0-31.719-14.238-31.719-31.719 0-10.762 14.738-44.281 31.719-76.938 17 32.68 31.719 66.18 31.719 76.938 0 17.48-14.238 31.719-31.719 31.719z"/>
  <path d="m416 32c-35.301 0-64 28.699-64 64v320c0 35.301 28.699 64 64 64s64-28.699 64-64v-320c0-35.301-28.699-64-64-64zm32 384c0 17.641-14.359 32-32 32s-32-14.359-32-32v-43.359h13.602c8.8398 0 16-7.1602 16-16s-7.1602-16-16-16h-13.602v-68.641h13.602c8.8398 0 16-7.1602 16-16s-7.1602-16-16-16h-13.602v-68.641h13.602c8.8398 0 16-7.1602 16-16s-7.1602-16-16-16h-13.602v-43.359c0-17.641 14.359-32 32-32s32 14.359 32 32z"/>
 </g>
</svg>
