<?xml version="1.0" encoding="UTF-8"?>
<!-- Generated by Pixelmator Pro 3.6 -->
<svg width="682" height="682" viewBox="0 0 682 682" xmlns="http://www.w3.org/2000/svg">
    <path id="Path" fill="#000000" stroke="none" d="M 341.333344 56.223999 C 309.817352 56.223999 284.442657 81.598694 284.442657 113.114685 L 284.442657 141.557312 L 341.333344 141.557312 L 341.333344 170 L 284.442657 170 L 284.442657 198.442657 L 341.333344 198.442657 L 341.333344 226.885345 L 284.442657 226.885345 L 284.442657 255.328003 L 341.333344 255.328003 L 341.333344 283.77066 L 284.442657 283.77066 L 284.442657 425.997314 C 284.442657 441.231995 290.427063 454.970642 300.109344 465.164001 L 300.109344 465.169189 C 286.76535 472.533752 275.636017 483.335876 267.874664 496.455872 C 260.119476 509.580933 256.020538 524.538513 255.999741 539.778503 C 255.999741 562.414551 264.989349 584.117249 280.994415 600.122559 C 296.994415 616.122559 318.702393 625.111877 341.333069 625.111877 C 363.963745 625.111877 385.671753 616.122253 401.671753 600.122559 C 417.677094 584.117249 426.666382 562.414551 426.666382 539.778503 C 426.655975 524.527893 422.562256 509.559875 414.80188 496.423889 C 407.046661 483.29364 395.911224 472.481201 382.556519 465.111877 C 392.218018 454.924377 398.223175 441.215881 398.223175 426.002502 L 398.223175 113.109192 C 398.223175 81.593201 372.848541 56.218567 341.33255 56.218567 Z"/>
    <path id="Path-copy" fill="#000000" stroke="none" d="M 569 166.708374 C 569 199.730347 543.504456 226.500031 512.055542 226.500031 C 480.606659 226.500031 455.111115 199.730804 455.111115 166.708374 C 455.111115 133.68634 512.055542 55.666687 512.055542 55.666687 C 512.055542 55.666687 569 133.684998 569 166.708374 Z"/>
</svg>
