<?xml version="1.0" encoding="UTF-8"?>
<!-- Generated by Pixelmator Pro 3.6 -->
<svg width="682" height="682" viewBox="0 0 682 682" xmlns="http://www.w3.org/2000/svg">
    <g id="Group">
        <path id="Path" fill="#000000" stroke="none" d="M 531.94873 448.913269 C 531.94873 353.86615 381.570801 86.132263 364.396912 55.906189 C 354.64267 38.697937 326.372223 38.697937 316.619171 55.906189 C 299.47876 86.135681 149.100006 353.873047 149.100006 448.913269 C 149.100006 554.465637 234.969391 640.333313 340.52005 640.333313 C 446.072449 640.333313 531.940125 554.463928 531.940125 448.913269 Z M 204.065002 448.913269 C 204.065002 395.023376 278.670074 239.907166 340.530365 126.078674 C 402.356323 239.902008 476.995758 395.021637 476.995758 448.913269 C 476.995758 524.136597 415.786316 585.378662 340.530365 585.378662 C 265.307037 585.378662 204.065002 524.169189 204.065002 448.913269 Z"/>
    </g>
</svg>
