<?xml version="1.0" encoding="UTF-8"?>
<!-- Generated by Pixelmator Pro 3.6 -->
<svg width="682" height="682" viewBox="0 0 682 682" xmlns="http://www.w3.org/2000/svg">
    <path id="Path" fill="#000000" stroke="none" d="M 340.519531 640.333984 C 234.968979 640.333984 149.099609 554.466309 149.099609 448.914063 C 149.099609 353.873932 299.47876 86.135742 316.619141 55.90625 C 326.372192 38.697998 354.642242 38.697998 364.396484 55.90625 C 381.570343 86.132324 531.949219 353.867035 531.949219 448.914063 L 531.939453 448.914063 C 531.939453 554.4646 446.071838 640.333984 340.519531 640.333984 Z M 340.521484 598.365234 C 427.354279 598.365234 497.992188 527.723938 497.992188 440.892578 L 498 440.892578 C 498 362.701965 374.292175 142.451477 360.164063 117.585938 C 352.139709 103.429504 328.882751 103.429504 320.859375 117.585938 C 306.758789 142.454285 183.048828 362.707642 183.048828 440.892578 C 183.048828 527.725342 253.690125 598.365234 340.521484 598.365234 Z"/>
</svg>
