<?xml version="1.0" encoding="UTF-8"?>
<svg width="512pt" height="512pt" version="1.1" viewBox="0 0 512 512" xmlns="http://www.w3.org/2000/svg">
 <g>
  <path d="m406.24 300.96c-11.121-14.82-27.527-24.785-45.809-27.824-18.281-3.0391-37.027 1.0781-52.352 11.504-2.2773 1.5078-5.1602 1.7773-7.6797 0.71875-2.4922-1.1484-4.2578-3.4531-4.7188-6.1602-1.8359-12.184-7.9961-23.301-17.352-31.32-9.3555-8.0195-21.285-12.406-33.609-12.359-3.2227-0.003906-6.4414 0.31641-9.5977 0.96094-0.16016 0-0.39844 0.078125-0.64062 0.078125-9.6172 1.9531-18.473 6.6172-25.52 13.441-1.7031 1.6406-4.0508 2.4336-6.4023 2.1602-2.3555-0.24219-4.4883-1.4961-5.8398-3.4414-11.078-16.59-28.773-27.602-48.555-30.207s-39.727 3.4414-54.727 16.598-23.602 32.141-23.598 52.09c0.03125 6.3008 0.89062 12.566 2.5586 18.641 1.1641 4.0977-1.0859 8.3906-5.1172 9.7617-15.633 5.2148-27.828 17.586-32.832 33.285-5 15.699-2.207 32.844 7.5273 46.145 9.7305 13.297 25.227 21.148 41.703 21.129h264.88c17.688 0.015625 34.762-6.4805 47.965-18.25 13.203-11.766 21.613-27.98 23.625-45.551 2.0156-17.574-2.5078-35.27-12.707-49.719-0.48828-0.49219-0.89453-1.0586-1.2031-1.6797z"/>
  <path d="m308.8 265.6c12.336-6.1992 25.953-9.4336 39.758-9.4414 23.793-0.015625 46.574 9.625 63.121 26.719 9.3555-20.867 10.406-44.516 2.9414-66.129-7.4688-21.613-22.887-39.574-43.125-50.219-20.238-10.648-43.773-13.184-65.816-7.0898-29.469 8.3203-52.75 30.941-61.918 60.16 0.3125-0.066406 0.63672-0.09375 0.95703-0.082031 14.176-0.058593 28.008 4.3633 39.52 12.641 11.508 8.2773 20.105 19.98 24.562 33.441zm1.7617-88.32h-0.003906c18.27-5.0586 37.797-2.6445 54.289 6.7031 16.488 9.3477 28.59 24.863 33.633 43.137 1.1797 4.2383-1.2852 8.6367-5.5195 9.8398-0.69922 0.22266-1.4297 0.33203-2.1602 0.32031-3.6094 0.003906-6.7656-2.4297-7.6797-5.9219-3.9453-14.16-13.344-26.18-26.133-33.426-12.793-7.2422-27.938-9.1172-42.109-5.2148-4.2617 1.1953-8.6875-1.2969-9.8789-5.5586-1.1914-4.2656 1.2969-8.6875 5.5586-9.8789z"/>
  <path d="m190.62 158.19c-1.8477-1.0625-4.043-1.3477-6.1016-0.78516-2.0547 0.55859-3.8008 1.918-4.8516 3.7734-1.0547 1.8555-1.3203 4.0508-0.74609 6.1055 0.57812 2.0508 1.9492 3.7891 3.8086 4.8281l22.473 12.742c3.8438 2.1797 8.7266 0.83203 10.91-3.0117 2.1797-3.8438 0.83203-8.7266-3.0117-10.906z"/>
  <path d="m283.7 80.09c-2.0508 0.55859-3.793 1.9141-4.8438 3.7617-1.0508 1.8477-1.3203 4.0352-0.75391 6.0859l6.8789 24.902c0.95703 3.4648 4.1094 5.8672 7.7031 5.8711 0.72266 0 1.4414-0.097657 2.1367-0.29688 2.0469-0.55859 3.7891-1.9102 4.8398-3.7578 1.0508-1.8438 1.3242-4.0312 0.76172-6.082l-6.8867-24.91h-0.003906c-1.1797-4.2539-5.5781-6.7461-9.832-5.5742z"/>
  <path d="m397.89 133.7c2.8867 0.003906 5.5469-1.5469 6.9688-4.0547l12.738-22.449c1.0625-1.8477 1.3438-4.043 0.78516-6.0977-0.5625-2.0586-1.918-3.8047-3.7734-4.8555-1.8555-1.0508-4.0547-1.3164-6.1055-0.74219-2.0508 0.57422-3.7891 1.9453-4.8281 3.8086l-12.742 22.48c-1.4023 2.4727-1.3867 5.5078 0.042969 7.9688 1.4336 2.457 4.0625 3.9727 6.9062 3.9727z"/>
  <path d="m485.86 194.67-24.902 6.9297c-3.875 1.0508-6.3711 4.8125-5.832 8.793 0.53906 3.9766 3.9453 6.9414 7.9609 6.9258 0.71875-0.003906 1.4375-0.10547 2.1328-0.29687l24.91-6.8867h0.003907c4.2578-1.1797 6.7539-5.5898 5.5742-9.8477-1.1797-4.2617-5.5859-6.7578-9.8477-5.5781z"/>
  <path d="m476.52 320.24-22.48-12.742c-3.8398-2.1406-8.6875-0.78125-10.855 3.043-2.1641 3.8242-0.83984 8.6836 2.9688 10.875l22.48 12.742v0.003906c1.8477 1.0625 4.043 1.3477 6.0977 0.78516 2.0586-0.55859 3.8047-1.918 4.8555-3.7734 1.0508-1.8555 1.3164-4.0508 0.74219-6.1055-0.57422-2.0508-1.9453-3.7891-3.8086-4.8281z"/>
 </g>
</svg>
