<?xml version="1.0" encoding="UTF-8"?>
<svg width="512pt" height="512pt" version="1.1" viewBox="0 0 512 512" xmlns="http://www.w3.org/2000/svg">
 <g>
  <path d="m256 142.24c-30.172 0-59.105 11.988-80.441 33.32-21.332 21.336-33.32 50.27-33.32 80.441s11.988 59.105 33.32 80.441c21.336 21.332 50.27 33.32 80.441 33.32s59.105-11.988 80.441-33.32c21.332-21.336 33.32-50.27 33.32-80.441-0.039063-30.16-12.035-59.074-33.359-80.402-21.328-21.324-50.242-33.32-80.402-33.359zm90 121.76c-4.418 0-8-3.582-8-8-0.03125-21.738-8.6797-42.578-24.051-57.949-15.371-15.371-36.211-24.02-57.949-24.051-4.418 0-8-3.582-8-8s3.582-8 8-8c25.977 0.042969 50.879 10.383 69.25 28.75 18.367 18.371 28.707 43.273 28.75 69.25 0 2.1211-0.84375 4.1562-2.3438 5.6562s-3.5352 2.3438-5.6562 2.3438z"/>
  <path d="m256 93.754c2.1211 0 4.1562-0.84375 5.6562-2.3438s2.3438-3.5352 2.3438-5.6562v-61.754c0-4.418-3.582-8-8-8s-8 3.582-8 8v61.754c0 4.418 3.582 8 8 8z"/>
  <path d="m376.38 143.62c2.1211 0 4.1562-0.84375 5.6562-2.3438l43.664-43.672c1.6055-1.4766 2.5352-3.543 2.582-5.7227 0.042969-2.1797-0.80078-4.2812-2.3438-5.8203-1.5391-1.543-3.6406-2.3867-5.8203-2.3438-2.1797 0.046875-4.2461 0.97656-5.7227 2.582l-43.664 43.664c-2.2852 2.2852-2.9688 5.7266-1.7305 8.7148 1.2383 2.9922 4.1523 4.9414 7.3867 4.9414z"/>
  <path d="m488 248h-61.754c-4.418 0-8 3.582-8 8s3.582 8 8 8h61.754c4.418 0 8-3.582 8-8s-3.582-8-8-8z"/>
  <path d="m382.04 370.73c-3.1367-3.0312-8.1289-2.9883-11.215 0.097657-3.0859 3.0859-3.1289 8.0781-0.097657 11.215l43.672 43.664c3.1562 2.9062 8.043 2.8047 11.074-0.23047 3.0352-3.0312 3.1367-7.918 0.23047-11.074z"/>
  <path d="m256 418.25c-4.418 0-8 3.582-8 8v61.754c0 4.418 3.582 8 8 8s8-3.582 8-8v-61.754c0-2.1211-0.84375-4.1562-2.3438-5.6562s-3.5352-2.3438-5.6562-2.3438z"/>
  <path d="m129.96 370.73-43.664 43.672c-1.6055 1.4766-2.5352 3.543-2.582 5.7227-0.042969 2.1797 0.80078 4.2812 2.3438 5.8203 1.5391 1.543 3.6406 2.3867 5.8203 2.3438 2.1797-0.046875 4.2461-0.97656 5.7227-2.582l43.664-43.664c3.0312-3.1367 2.9883-8.1289-0.097656-11.215-3.0859-3.0859-8.0781-3.1289-11.215-0.097657z"/>
  <path d="m93.754 256c0-2.1211-0.84375-4.1562-2.3438-5.6562s-3.5352-2.3438-5.6562-2.3438h-61.754c-4.418 0-8 3.582-8 8s3.582 8 8 8h61.754c4.418 0 8-3.582 8-8z"/>
  <path d="m129.96 141.27c3.1367 3.0312 8.1289 2.9883 11.215-0.097657 3.0859-3.0859 3.1289-8.0781 0.097657-11.215l-43.672-43.664c-1.4766-1.6055-3.543-2.5352-5.7227-2.582-2.1797-0.042969-4.2812 0.80078-5.8203 2.3438-1.543 1.5391-2.3867 3.6406-2.3438 5.8203 0.046875 2.1797 0.97656 4.2461 2.582 5.7227z"/>
 </g>
</svg>
