<?xml version="1.0" encoding="UTF-8"?>
<svg width="512pt" height="512pt" version="1.1" viewBox="0 0 512 512" xmlns="http://www.w3.org/2000/svg">
 <g>
  <path d="m256 85.332c-35.219 0-64 28.781-64 64h21.332c0-23.691 18.977-42.668 42.668-42.668s42.668 18.977 42.668 42.668c0 23.691-18.977 42.668-42.668 42.668h-85.332v21.332h85.332c35.219 0 64-28.781 64-64s-28.781-64-64-64z"/>
  <path d="m405.33 138.67c-35.219 0-64 28.781-64 64h21.332c0-23.691 18.977-42.668 42.668-42.668 23.691 0 42.668 18.977 42.668 42.668 0 23.691-18.977 42.668-42.668 42.668h-85.332v21.332h85.332c35.219 0 64-28.781 64-64s-28.781-64-64-64z"/>
  <path d="m106.67 192v21.332h42.668v-21.332z"/>
  <path d="m42.668 245.33v21.332h170.67v-21.332z"/>
  <path d="m234.67 245.33v21.332h64v-21.332z"/>
  <path d="m106.67 298.67v21.332h42.668v-21.332z"/>
  <path d="m170.67 298.67v21.332h128c23.691 0 42.668 18.977 42.668 42.668 0 23.691-18.977 42.668-42.668 42.668-23.691 0-42.668-18.977-42.668-42.668h-21.332c0 35.219 28.781 64 64 64s64-28.781 64-64-28.781-64-64-64z"/>
 </g>
</svg>
