<?xml version="1.0" encoding="UTF-8"?>
<svg width="512pt" height="512pt" version="1.1" viewBox="0 0 512 512" xmlns="http://www.w3.org/2000/svg">
 <g>
  <path d="m72.242 248h-40v-0.71875c0.078124-1.4414 0.16016-2.8789 0.23828-4.3203 0.16016-1.6016 0.24219-3.2812 0.39844-4.8789 0.16016-1.4414 0.32031-2.8789 0.48047-4.3203 0.24219-1.6016 0.39844-3.2031 0.64062-4.8008 0.24219-1.4414 0.48047-2.8789 0.71875-4.2422 0.24219-1.5977 0.5625-3.1172 0.80078-4.7188 0.32031-1.4414 0.64062-2.8008 0.96094-4.2422 0.32031-1.5195 0.64062-3.0391 1.0391-4.5586 0.39844-1.3594 0.71875-2.7188 1.1211-4.1602 0.39844-1.4414 0.87891-2.9609 1.2812-4.4805 0.39844-1.3594 0.87891-2.7188 1.3594-4.082 0.48047-1.4414 0.96094-2.8789 1.4414-4.3203 0.48047-1.3594 1.0391-2.7188 1.5195-4.0781 0.55859-1.4414 1.1211-2.8008 1.6797-4.2422 0.55859-1.2812 1.1211-2.6406 1.7617-3.918 0.55859-1.4414 1.1992-2.8008 1.8398-4.1602 0.55859-1.2812 1.1992-2.5586 1.8398-3.8398 0.47656-0.95703 1.0352-1.918 1.5156-2.8789l34.398 19.918c0.16016 0 0.24219 0.082031 0.32031 0.082031-8.7188 17.359-14.238 36.562-15.355 56.961zm23.359-70.641c-0.082031-0.082031-0.16016-0.23828-0.32031-0.32031l-34.398-19.84c0.48047-0.80078 1.0391-1.6016 1.5195-2.3203 0.79688-1.1992 1.5977-2.3984 2.3984-3.5977 0.87891-1.1992 1.6797-2.3984 2.5586-3.6016 0.88281-1.1211 1.7617-2.3203 2.6406-3.4414 0.87891-1.1992 1.7578-2.3203 2.7188-3.4414 0.87891-1.1211 1.8398-2.2383 2.7188-3.3594 0.96094-1.1211 1.918-2.2422 2.8789-3.3594 0.96094-1.0391 1.9219-2.1602 2.9609-3.1992 0.96094-1.0391 2-2.082 2.9609-3.1211 1.0391-1.0391 2.0781-2.082 3.1211-3.1211 1.0391-1.0391 2.082-2 3.1211-3.0391 1.0391-0.96094 2.1602-1.9219 3.1992-2.8789 1.1211-1.0391 2.2383-1.918 3.2812-2.8789 1.1211-0.96094 2.2422-1.918 3.3594-2.8008 1.1211-0.96094 2.3203-1.8398 3.4414-2.7188 1.1992-0.87891 2.3203-1.7578 3.4414-2.6406 1.1992-0.87891 2.3984-1.6797 3.6016-2.5586 1.1953-0.80078 2.3945-1.6016 3.5938-2.4023 0.96094-0.64062 1.8398-1.1992 2.8008-1.8398l19.84 34.398c0.082032 0.082031 0.16016 0.16016 0.23828 0.24219-16.637 10.879-30.797 25.199-41.676 41.84zm55.438-49.758c-0.082031-0.082031-0.082031-0.24219-0.082031-0.32031l-19.918-34.398c0.80078-0.39844 1.6016-0.80078 2.3984-1.1992 1.2812-0.72266 2.5625-1.3633 3.8438-1.9258 1.3594-0.64062 2.7188-1.2812 4.1602-1.918 1.2773-0.55859 2.5586-1.1211 3.918-1.6797 1.3594-0.64062 2.8008-1.1992 4.2422-1.7578 1.3594-0.48047 2.6406-1.0391 4-1.5195 1.4414-0.48047 2.9609-0.96094 4.3984-1.4414 1.3594-0.48047 2.7188-0.96094 4.082-1.3594 1.4414-0.48047 3.0391-0.87891 4.5586-1.2812 1.2812-0.39844 2.6406-0.80078 4-1.1211 1.6016-0.39844 3.1992-0.80078 4.8008-1.1211 1.3594-0.32031 2.6406-0.64062 4-0.87891 1.6797-0.32031 3.3594-0.64063 5.0391-0.96094 1.2812-0.16016 2.5586-0.48047 3.918-0.64062 1.7617-0.23828 3.6016-0.47656 5.3594-0.71875 1.2812-0.082031 2.4805-0.32031 3.6797-0.39844 2-0.24219 4-0.32031 6.082-0.48047l3.1211-0.24219h1.3594v39.762c0 0.16016 0.082031 0.23828 0.082031 0.39844-20.402 1.1211-39.762 6.4023-57.043 15.203zm90 168.08c-4.2422 7.7617-10.961 13.199-19.039 15.359-7.6797 2-15.68 0.87891-22.48-3.3594-14.879-9.1211-19.918-29.52-11.281-45.359 6.2383-11.52 49.68-56.879 86.078-93.441-11.598 52-26.957 115.2-33.277 126.8zm33.602-171.12c-15.84-7.1211-32.961-11.281-50.719-12.242-0.003906-0.078125 0.078125-0.15625 0.078125-0.31641v-39.602c3.2812 0.16016 6.5586 0.16016 9.7578 0.48047 1.9219 0.16016 3.8398 0.55859 5.7617 0.80078 3.918 0.48047 7.8398 0.96094 11.602 1.6797 2.3203 0.48047 4.5586 1.1211 6.8008 1.6016 3.4414 0.80078 6.8789 1.6016 10.16 2.5586 2.3984 0.71875 4.7188 1.5195 7.0391 2.3203 3.1211 1.1211 6.3203 2.1602 9.4414 3.3594 2.3203 0.96094 4.6406 2.082 6.9609 3.1211 1.0391 0.48047 2.1602 0.96094 3.1992 1.5195zm37.199 23.922c-7.1211-6.3203-14.801-11.84-22.961-16.641l20-34.559c2.1602 1.3594 4.3984 2.5586 6.5586 3.918 2.1602 1.4414 4.3203 2.9609 6.4805 4.5586 2.6406 1.8398 5.2812 3.6797 7.7617 5.6797 2.0781 1.6797 4.1602 3.4414 6.1602 5.1211 1.3594 1.1992 2.7188 2.4805 4.082 3.7578zm90.16 155.84c-4.2422-1.2812-8.6406 1.1211-9.918 5.3594-23.762 77.922-94.48 130.32-176.08 130.32-98.559 0-179.2-77.84-183.68-175.28h-16.078c4.4766 106.24 92.316 191.28 199.76 191.28 88.641 0 165.52-56.961 191.36-141.68 1.2812-4.2383-1.1172-8.7188-5.3594-10z"/>
  <path d="m176 360c-4.4219 0-8 3.5781-8 8s3.5781 8 8 8h80c4.4219 0 8-3.5781 8-8s-3.5781-8-8-8z"/>
  <path d="m408 136c4.4141 0 8 3.5898 8 8s-3.5859 8-8 8h-64c-4.4219 0-8 3.582-8 8s3.5781 8 8 8h64c13.234 0 24-10.766 24-24s-10.766-24-24-24c-4.4219 0-8 3.582-8 8s3.5781 8 8 8z"/>
  <path d="m456 224h-80c-4.4219 0-8 3.582-8 8s3.5781 8 8 8h80c13.234 0 24 10.766 24 24s-10.766 24-24 24-24-10.766-24-24c0-4.418-3.5781-8-8-8s-8 3.582-8 8c0 22.055 17.945 40 40 40s40-17.945 40-40-17.945-40-40-40z"/>
  <path d="m304 192c0 4.418 3.5781 8 8 8h128c4.4219 0 8-3.582 8-8s-3.5781-8-8-8h-128c-4.4219 0-8 3.582-8 8z"/>
  <path d="m344 224h-48c-4.4219 0-8 3.582-8 8s3.5781 8 8 8h48c4.4219 0 8-3.582 8-8s-3.5781-8-8-8z"/>
  <path d="m304 280c0 4.4219 3.5781 8 8 8h80c4.4219 0 8-3.5781 8-8s-3.5781-8-8-8h-80c-4.4219 0-8 3.5781-8 8z"/>
 </g>
</svg>
