<?xml version="1.0" encoding="UTF-8"?>
<!-- Generated by Pixelmator Pro 3.6 -->
<svg width="682" height="682" viewBox="0 0 682 682" xmlns="http://www.w3.org/2000/svg">
    <path id="Path-copy" fill="#000000" stroke="none" d="M 431.388672 596.335938 C 412.472961 596.335938 396.31604 590.030762 385.597656 578.408203 C 384.829712 577.574524 384.149719 576.691223 383.556641 575.769531 C 384.41922 571.794495 386.469543 568.036377 389.6875 565.070313 C 398.010162 557.408875 410.958984 557.941406 418.630859 566.253906 C 422.354858 570.295471 430.067017 572.460266 439.384766 572.111328 C 448.858887 571.725891 456.839142 568.554626 459.724609 564.023438 C 461.469391 561.278625 462.339203 556.757813 462.224609 550.945313 C 461.965668 537.334961 456.702515 523.54248 447.662109 511.294922 C 440.080444 496.579773 426.856049 483.275391 409.984375 474.230469 C 381.622009 459.029907 346.790436 456.121887 319.605469 455.291016 C 293.168701 454.489441 265.76535 455.388824 239.259766 456.263672 C 179.388214 458.233093 117.47123 460.277496 57.746094 443.46875 C 47.531235 440.589722 41.578251 429.974731 44.457031 419.759766 C 45.473606 416.154663 47.453365 413.078522 50.039063 410.734375 C 50.106068 410.752563 50.17326 410.770142 50.240234 410.789063 C 107.776176 426.976501 167.728958 425.001953 231.212891 422.908203 C 260.087524 421.960297 289.953552 420.959656 319.4375 421.871094 C 352.880157 422.892456 396.11496 426.663208 433.849609 446.892578 C 445.429901 453.102173 455.901459 460.754456 464.994141 469.443359 C 482.366089 489.137177 492.74469 513.188599 493.205078 537.255859 C 493.459198 550.472412 490.649139 561.792053 484.857422 570.902344 C 475.170532 586.127563 456.96402 595.369263 434.896484 596.263672 L 434.892578 596.263672 C 433.714661 596.312561 432.547028 596.335938 431.388672 596.335938 Z M 527.421875 379.628906 C 507.274933 379.628906 485.502106 377.204895 461.792969 372.361328 C 442.448059 368.407257 423.342499 363.275879 404.867188 358.314453 C 387.858276 353.749542 370.277405 349.027863 353.019531 345.386719 C 333.100586 341.185303 312.892792 338.277618 292.570313 336.65625 C 292.55011 336.65451 292.529968 336.65213 292.509766 336.650391 C 292.373657 336.639557 292.237671 336.627899 292.101563 336.617188 C 236.394516 331.87381 179.832367 336.222992 125.607422 349.585938 C 119.348221 347.709381 114.216362 342.684479 112.496094 335.890625 C 109.8862 325.602325 116.107582 315.149078 126.400391 312.539063 C 202.762848 293.17038 283.865082 291.517273 360.939453 307.773438 C 379.223358 311.629639 397.322357 316.486298 414.824219 321.183594 C 432.746552 325.997833 451.281128 330.973755 469.482422 334.693359 C 492.843323 339.467194 513.804871 341.607422 532.732422 341.117188 C 552.59137 341.698792 570.453308 339.790833 586.640625 335.390625 C 601.921997 331.239563 612.614868 325.489716 619.324219 317.828125 C 631.001221 304.494781 630.839172 280.379364 618.974609 265.166016 C 606.948608 249.754059 583.74646 242.016266 562.533203 246.349609 C 551.465454 248.594391 540.631104 241.457581 538.371094 230.378906 C 537.186157 224.582153 538.577515 218.859711 541.759766 214.394531 C 575.772827 207.659424 612.051392 220.393799 632.173828 246.179688 C 654.65686 274.996216 654.193604 318.207458 631.119141 344.556641 C 619.682373 357.620514 603.484375 366.862305 581.613281 372.810547 C 564.90332 377.351074 546.926147 379.625 527.416016 379.625 L 527.421875 379.628906 Z M 39.083984 252.220703 C 37.751091 250.81015 36.608845 249.173126 35.724609 247.330078 C 31.135303 237.760834 35.168549 226.285736 44.738281 221.691406 C 122.813629 184.22403 212.496567 173.379242 297.255859 191.160156 C 301.971802 192.152222 306.664429 193.227509 311.361328 194.302734 C 319.263947 196.116028 326.728058 197.824982 334.230469 199.105469 C 346.683746 201.231537 359.41629 202.136963 372.041016 201.863281 C 392.500702 201.379425 408.961823 197.727509 422.353516 190.689453 C 429.211243 187.082336 434.113495 183.06955 436.923828 178.753906 C 438.114624 176.926941 439.160156 174.707916 440.128906 171.947266 C 441.328827 170.70105 442.354401 169.427246 443.201172 168.126953 C 445.102234 165.210266 446.659576 161.360657 448.107422 156.027344 C 451.227295 144.552673 451.956329 129.35614 444.669922 121.111328 C 437.196625 112.658264 421.034515 110.537048 405.117188 109.099609 C 396.10907 108.283325 388.996582 101.758667 387.025391 93.419922 C 390.833679 87.837402 397.474304 84.428772 404.650391 85.078125 C 421.385284 86.593384 449.391418 89.131531 467.103516 109.179688 C 481.712341 125.719421 485.915192 150.605652 478.623047 177.462891 C 476.184143 186.456543 473.169952 193.528198 469.132813 199.730469 C 468.340118 200.947449 467.497223 202.1427 466.605469 203.314453 C 461.040344 208.463348 454.39679 213.074829 446.726563 217.105469 C 426.737244 227.61026 403.284851 233.037781 375.019531 233.699219 C 358.926208 234.079468 342.733002 232.897736 326.873047 230.189453 C 317.742401 228.637329 308.846313 226.595093 300.242188 224.621094 C 295.486847 223.532562 290.73175 222.439453 285.960938 221.439453 C 204.38768 204.33551 118.113541 214.765869 42.988281 250.8125 L 42.992188 250.808594 C 41.714809 251.422852 40.406094 251.890045 39.083984 252.220703 Z"/>
</svg>
